<svg xmlns="http://www.w3.org/2000/svg" viewBox="0 0 32 32" width="32" height="32">
  <defs>
    <linearGradient id="modernGradient" x1="0%" y1="0%" x2="100%" y2="100%">
      <stop offset="0%" style="stop-color:#667eea;stop-opacity:1" />
      <stop offset="100%" style="stop-color:#764ba2;stop-opacity:1" />
    </linearGradient>
    <linearGradient id="sunGradient" x1="0%" y1="0%" x2="100%" y2="100%">
      <stop offset="0%" style="stop-color:#f093fb;stop-opacity:1" />
      <stop offset="100%" style="stop-color:#f5576c;stop-opacity:1" />
    </linearGradient>
    <filter id="glow">
      <feGaussianBlur stdDeviation="1" result="coloredBlur"/>
      <feMerge> 
        <feMergeNode in="coloredBlur"/>
        <feMergeNode in="SourceGraphic"/>
      </feMerge>
    </filter>
  </defs>
  
  <!-- Modern rounded background -->
  <rect x="2" y="2" width="28" height="28" rx="8" ry="8" fill="url(#modernGradient)"/>
  
  <!-- Geometric weather icon -->
  <g filter="url(#glow)">
    <!-- Stylized sun -->
    <circle cx="16" cy="12" r="3.5" fill="#ffffff" opacity="0.9"/>
    <g stroke="#ffffff" stroke-width="1.5" stroke-linecap="round" opacity="0.7">
      <line x1="16" y1="5" x2="16" y2="6.5"/>
      <line x1="16" y1="17.5" x2="16" y2="19"/>
      <line x1="9" y1="12" x2="10.5" y2="12"/>
      <line x1="21.5" y1="12" x2="23" y2="12"/>
      <line x1="11.5" y1="7.5" x2="12.4" y2="8.4"/>
      <line x1="19.6" y1="15.6" x2="20.5" y2="16.5"/>
      <line x1="20.5" y1="7.5" x2="19.6" y2="8.4"/>
      <line x1="12.4" y1="15.6" x2="11.5" y2="16.5"/>
    </g>
    
    <!-- Modern cloud shape -->
    <path d="M10 20 C8 20, 7 21, 7 22 C7 23, 8 24, 10 24 L22 24 C23.5 24, 25 22.5, 25 21 C25 19.5, 23.5 18, 22 18 C22 16.5, 20.5 15, 19 15 C17.5 15, 16 16.5, 16 18 C15 17, 13 17, 12 18 C11 18.5, 10 19, 10 20 Z" 
          fill="#ffffff" opacity="0.8"/>
    
    <!-- Rain drops with modern style -->
    <circle cx="12" cy="26" r="1" fill="#ffffff" opacity="0.6"/>
    <circle cx="16" cy="27" r="1" fill="#ffffff" opacity="0.6"/>
    <circle cx="20" cy="26" r="1" fill="#ffffff" opacity="0.6"/>
  </g>
</svg>
